<svg width="36" height="35" viewBox="0 0 36 35" fill="none" xmlns="http://www.w3.org/2000/svg">
<path fill-rule="evenodd" clip-rule="evenodd" d="M17.9936 0C13.7205 0.0022171 9.58742 1.51569 6.33353 4.26978C3.07964 7.02388 0.91708 10.839 0.232542 15.033C-0.451996 19.227 0.386115 23.5263 2.59703 27.1623C4.80795 30.7982 8.24748 33.5336 12.3006 34.8795C13.1948 35.0454 13.5316 34.4912 13.5316 34.02C13.5316 33.5488 13.5137 32.1825 13.5078 30.6888C8.50032 31.7706 7.4422 28.5757 7.4422 28.5757C6.62551 26.5012 5.44518 25.9558 5.44518 25.9558C3.8118 24.8474 5.5674 24.8682 5.5674 24.8682C7.37664 24.9956 8.32746 26.7145 8.32746 26.7145C9.93104 29.45 12.5391 28.6587 13.5644 28.1964C13.7254 27.0376 14.1933 26.2492 14.709 25.8017C10.709 25.3513 6.50628 23.8161 6.50628 16.9581C6.48149 15.1796 7.14526 13.4596 8.36024 12.154C8.17544 11.7035 7.55844 9.88385 8.53609 7.41215C8.53609 7.41215 10.0473 6.93203 13.4869 9.24666C16.4372 8.44444 19.55 8.44444 22.5003 9.24666C25.937 6.93203 27.4452 7.41215 27.4452 7.41215C28.4258 9.87792 27.8088 11.6976 27.624 12.154C28.8428 13.4598 29.508 15.1828 29.4809 16.9641C29.4809 23.8368 25.2693 25.3513 21.2634 25.7928C21.9072 26.35 22.4824 27.4377 22.4824 29.1092C22.4824 31.5038 22.4616 33.4302 22.4616 34.02C22.4616 34.4971 22.7865 35.0543 23.6985 34.8795C27.7521 33.5335 31.192 30.7976 33.4029 27.161C35.6138 23.5244 36.4515 19.2244 35.7661 15.0301C35.0808 10.8357 32.9172 7.02053 29.6622 4.26691C26.4072 1.51328 22.2732 0.000811791 17.9996 0H17.9936Z" fill="#222222"/>
</svg>
