<svg width="96" height="120" viewBox="0 0 96 120" fill="none" xmlns="http://www.w3.org/2000/svg">
<path d="M96.0001 105.54V36L60.0001 0H12C5.4 0 0.0600014 5.4 0.0600014 12L0 108C0 114.6 5.34 120 11.94 120H84.0001C86.7001 120 89.1001 119.1 91.1401 117.6L64.5601 91.02C59.7601 94.14 54.1201 96 48 96C31.44 96 18 82.56 18 66C18 49.44 31.44 36 48 36C64.5601 36 78.0001 49.44 78.0001 66C78.0001 72.12 76.1401 77.76 73.0201 82.5L96.0001 105.54ZM30 66C30 75.96 38.04 84 48 84C57.9601 84 66.0001 75.96 66.0001 66C66.0001 56.04 57.9601 48 48 48C38.04 48 30 56.04 30 66Z" fill="black"/>
</svg>
