<?xml version="1.0" encoding="utf-8"?>
<!-- Generator: Adobe Illustrator 23.0.3, SVG Export Plug-In . SVG Version: 6.00 Build 0)  -->
<svg version="1.1" id="圖層_1" xmlns="http://www.w3.org/2000/svg" xmlns:xlink="http://www.w3.org/1999/xlink" x="0px" y="0px"
	 viewBox="0 0 228.8 77.5" style="enable-background:new 0 0 228.8 77.5;" xml:space="preserve">
<style type="text/css">
	.st0{fill:#595857;}
	.st1{fill:#AFAFAF;}
	.st2{fill:#D42A19;}
	.st3{fill:#040000;}
	.st4{fill:#FFFFFF;}
</style>
<g>
	<rect x="69.7" y="57.8" class="st0" width="157.2" height="18.2"/>
	<rect x="2.3" y="57.8" class="st1" width="67.5" height="18.2"/>
	<polygon class="st2" points="42.4,2 38.4,14.6 34.4,2 	"/>
	<path class="st3" d="M34.9,45.1c0,2.1-0.6,3.8-2,5c-1.3,1.2-3.1,1.8-5.4,1.8h-17c-2.3,0-4.1-0.6-5.4-1.8c-1.3-1.2-2-2.9-2-5V18.8
		h10.3v24h11.2v-24h10.3V45.1z"/>
	<path class="st3" d="M48.8,51.9c-3,0-5.3-0.7-6.8-2.3c-1.5-1.5-2.2-3.8-2.2-6.8V27.8c0-2.9,0.7-5.1,2.3-6.6
		c1.5-1.6,3.6-2.3,6.4-2.3h21.3v8.9H50.2v15.1h19.6v9.1H48.8z"/>
	<path class="st3" d="M105.4,43c0,3-0.7,5.2-2,6.7c-1.3,1.5-3.3,2.2-6,2.2H82.2c-2.7,0-4.7-0.7-6-2.2c-1.3-1.5-2-3.7-2-6.7V27.8
		c0-3,0.7-5.3,2-6.7c1.3-1.5,3.3-2.2,6.1-2.2h15.2c2.7,0,4.7,0.7,6,2.2c1.3,1.4,1.9,3.7,1.9,6.7V43z M84.5,42.9h10.6V27.8H84.5V42.9
		z"/>
	<path class="st3" d="M129.3,41c0.1-1,0.3-1.9,0.4-2.8c0.2-0.9,0.3-1.7,0.5-2.5l4-16.9h14.3v33.1h-9.8V35.6c0-1.1,0-2.2,0.1-3.4
		c0.1-1.1,0.2-2.3,0.4-3.4h-0.3l-5.5,23.2h-8.1l-5.6-23.2h-0.3c0.2,1.1,0.3,2.3,0.4,3.4c0.1,1.2,0.1,2.3,0.1,3.4v16.3h-9.8V18.8
		h14.3l4,16.9c0.2,0.6,0.3,1.4,0.4,2.2C129,38.8,129.2,39.8,129.3,41"/>
	<g>
		<path class="st4" d="M88.3,60.6l1.2,0.5c0.2,0.1,0.2,0.2,0.2,0.2c0,0.1-0.1,0.1-0.2,0.1c-0.1,0-0.2,0.1-0.3,0.2
			c-0.6,1-1.1,1.9-1.7,2.6c-0.7,1-1.6,1.8-2.6,2.5c-0.9,0.6-1.9,1.2-3,1.7c-0.7,0.3-1.3,0.5-1.8,0.7c-0.2,0-0.3,0-0.3-0.1
			c-0.2-0.3-0.4-0.6-0.7-0.9c0.9-0.3,1.8-0.6,2.7-1c1-0.5,2-1.1,2.9-1.8c0.9-0.7,1.6-1.4,2.3-2.3c0.5-0.7,0.9-1.4,1.3-2.3
			C88.2,60.7,88.2,60.6,88.3,60.6z M88.3,64.2c0.2,0,0.2,0.1,0.2,0.2v0.6c0,0.2-0.1,0.2-0.2,0.2h-8.7c-0.1,0-0.2-0.1-0.2-0.2v-0.6
			c0-0.1,0.1-0.2,0.2-0.2H88.3z M88.1,69.9c0.1,0,0.2,0.1,0.2,0.2c0,0.6,0,0.9-0.1,1c-2.5,0.5-5,0.9-7.5,1.2
			c-0.2,0.3-0.4,0.5-0.5,0.5c-0.1,0-0.4-0.5-0.7-1.5c1.1-0.1,2.5-0.3,4.1-0.6c1.6-0.2,3.1-0.5,4.5-0.8C88,69.9,88,69.9,88.1,69.9z
			 M86.7,61.4c0.2,0,0.2,0.1,0.2,0.2v0.6c0,0.2-0.1,0.2-0.2,0.2h-6.5c-0.2,0-0.2-0.1-0.2-0.2v-0.6c0-0.2,0.1-0.2,0.2-0.2H86.7z
			 M84.9,69.6V74c0,0.9-0.7,1.3-2,1.3l-1.1-0.1c-0.1,0-0.1-0.1-0.2-0.3c0-0.3-0.2-0.5-0.4-0.8c0-0.1,0-0.1,0.1-0.1
			c0.6,0.2,1.1,0.3,1.5,0.3c0.4,0,0.7-0.2,0.7-0.6v-4.2c0-0.2,0.1-0.3,0.3-0.3L84.9,69.6z M87,67l-0.3,1.1h-4.3
			c-0.2,0-0.2-0.1-0.2-0.2v-0.6c0-0.2,0.1-0.2,0.2-0.2H87z M84.7,59.6c0,0.2-0.1,0.2-0.2,0.3c-0.1,0-0.2,0.1-0.2,0.3v4.3
			c0,0.2-0.1,0.2-0.3,0.2h-0.8c-0.2,0-0.3-0.1-0.3-0.2v-4.9c0-0.1,0.1-0.2,0.3-0.2C84.2,59.4,84.7,59.5,84.7,59.6z M86.7,67H87
			c0.2,0,0.3,0,0.3,0.1c0.2,0.2,0.3,0.4,0.3,0.5l-2.8,2.6c-0.1,0.1-0.1,0.1-0.2,0.1c-0.7-0.2-1-0.3-1-0.5L86.7,67z M94.4,63h0.8
			c0.2,0,0.3,0.1,0.3,0.2c-0.1,2.3-0.3,4-0.6,5.1c-0.3,1.4-0.8,2.6-1.5,3.5c-0.6,0.7-1.3,1.4-2.1,1.9c-0.7,0.5-1.6,1-2.8,1.4
			c-0.4-0.3-0.7-0.6-1-0.9c0.6-0.2,1.3-0.5,2.2-1c0.9-0.6,1.7-1.2,2.3-1.9c0.7-1,1.2-2.1,1.5-3.3c0.3-1,0.5-2.6,0.6-4.8
			C94.2,63.1,94.3,63,94.4,63z M91.3,59.4l1.4,0.5c0.1,0.1,0.2,0.2,0.2,0.2c0,0.1-0.1,0.2-0.2,0.2c-0.1,0-0.2,0.1-0.3,0.3
			c-0.3,1.3-0.6,2.3-0.8,3c-0.3,0.7-0.6,1.4-0.9,2.1c-0.3,0.6-0.7,1.1-1,1.6c-0.2,0-0.3,0-0.4,0c-0.2-0.1-0.5-0.2-0.7-0.3
			c-0.1,0-0.1-0.1-0.1-0.1c0-0.1,0-0.1,0.1-0.2c0.5-0.7,1-1.5,1.5-2.5c0.3-0.6,0.5-1.2,0.7-1.9c0.2-0.7,0.4-1.6,0.6-2.7
			C91.2,59.5,91.2,59.4,91.3,59.4z M90.3,65.9h0.6c0.2,0,0.4,0.1,0.4,0.3c0.1,1.1,0.2,2,0.5,2.6c0.2,0.7,0.5,1.3,1,2
			c0.3,0.5,0.9,1.1,1.6,1.7c0.8,0.6,1.7,1.2,2.9,1.8c0,0.1-0.1,0.1-0.2,0.2c-0.2,0.2-0.5,0.3-0.8,0.5c-0.1,0.1-0.2,0.1-0.4,0.1
			c-0.7-0.4-1.3-0.8-2-1.3c-0.8-0.6-1.5-1.3-1.9-1.9c-0.5-0.6-0.9-1.4-1.3-2.4c-0.3-0.9-0.5-2-0.6-3.4C90,66,90.1,65.9,90.3,65.9z
			 M96.6,62.5c0.2,0,0.2,0.1,0.2,0.2v0.6c0,0.2-0.1,0.2-0.2,0.2h-5.4c-0.2,0-0.2-0.1-0.2-0.2v-0.6c0-0.2,0.1-0.2,0.2-0.2H96.6z"/>
		<path class="st4" d="M120.8,60.6c0.1,0,0.2,0.1,0.2,0.2v0.6c0,0.2-0.1,0.2-0.2,0.2h-16.4c-0.1,0-0.2-0.1-0.2-0.2v-0.6
			c0-0.2,0.1-0.2,0.2-0.2H120.8z M118.5,63.5v1.1c-3.7,0.3-7.8,0.6-12.2,0.8c-0.2,0-0.4,0.1-0.5,0.2c0,0.1-0.1,0.2-0.3,0.2
			c-0.1,0-0.4-0.5-0.9-1.5C109.2,64.2,113.9,63.9,118.5,63.5z M110.5,60.8c1.1,0.3,1.7,0.5,1.7,0.6c0,0.1-0.1,0.2-0.2,0.2
			c-0.2,0-0.2,0.1-0.2,0.2c-0.5,0.5-1.2,1.1-2,1.8c-0.5,0.4-1.1,0.8-1.7,1.2h-1.2c1-0.8,1.9-1.7,2.7-2.7c0.3-0.4,0.6-0.8,0.8-1.2
			C110.4,60.8,110.4,60.8,110.5,60.8z M107.5,66.2h0.8c0.2,0,0.3,0.1,0.3,0.2v8.5c0,0.2-0.1,0.2-0.3,0.2h-0.8
			c-0.2,0-0.3-0.1-0.3-0.2v-8.5C107.2,66.3,107.3,66.2,107.5,66.2z M117.6,66.2c0.2,0,0.3,0.1,0.3,0.2v7.7c0,0.3-0.3,0.6-0.9,0.7
			c-0.5,0.1-1.3,0.2-2.2,0.3c-0.2,0-0.2-0.1-0.2-0.2c0-0.3-0.2-0.6-0.5-1.1c0,0,0.1-0.1,0.2-0.1c1.1,0,1.7,0,1.9-0.1
			c0.2-0.1,0.3-0.2,0.3-0.3v-6.2h-8.4c-0.2,0-0.3-0.1-0.3-0.2v-0.6c0-0.1,0.1-0.2,0.3-0.2H117.6z M117,68.8c0.1,0,0.2,0.1,0.2,0.2
			v0.6c0,0.1-0.1,0.2-0.2,0.2h-9c-0.1,0-0.2-0.1-0.2-0.2V69c0-0.1,0.1-0.2,0.2-0.2H117z M117,71.3c0.1,0,0.2,0.1,0.2,0.2v0.6
			c0,0.1-0.1,0.2-0.2,0.2h-9c-0.1,0-0.2-0.1-0.2-0.2v-0.6c0-0.1,0.1-0.2,0.2-0.2H117z M113.7,59.3c0,0.2-0.1,0.2-0.2,0.2
			c-0.1,0-0.2,0.1-0.2,0.3v1.1c0,0.2-0.1,0.2-0.3,0.2h-0.8c-0.2,0-0.3-0.1-0.3-0.2v-1.7c0-0.1,0.1-0.2,0.3-0.2
			C113.2,59.1,113.7,59.1,113.7,59.3z M118.6,63.3c0.7,0.7,1.4,1.3,1.9,1.8c0,0,0,0.1-0.1,0.2c-0.4,0.5-0.6,0.7-0.6,0.7
			c-0.8-0.9-1.7-1.7-2.6-2.4c-0.8-0.6-1.4-1-1.9-1.2c0-0.1,0.2-0.3,0.6-0.8c0.1-0.1,0.1-0.1,0.2-0.1C117.1,62.2,118,62.8,118.6,63.3
			z"/>
		<path class="st4" d="M135.1,62c0.2,0,0.2,0.1,0.2,0.2v0.6c0,0.2-0.1,0.2-0.2,0.2h-6.6c-0.1,0-0.2-0.1-0.2-0.2v-0.6
			c0-0.2,0.1-0.2,0.2-0.2H135.1z M129,69.5h0.8c0.2,0,0.3,0.1,0.3,0.2v5.1c0,0.2-0.1,0.2-0.3,0.2H129c-0.2,0-0.3-0.1-0.3-0.2v-5.1
			C128.8,69.6,128.8,69.5,129,69.5z M134.2,66.9c0.2,0,0.2,0.1,0.2,0.2v0.6c0,0.2-0.1,0.2-0.2,0.2h-4.7c-0.1,0-0.2-0.1-0.2-0.2v-0.6
			c0-0.1,0.1-0.2,0.2-0.2H134.2z M134.3,64.4c0.1,0,0.2,0.1,0.2,0.2v0.6c0,0.1-0.1,0.2-0.2,0.2h-4.7c-0.2,0-0.2-0.1-0.2-0.2v-0.6
			c0-0.2,0.1-0.2,0.2-0.2H134.3z M134.2,59.6c0.2,0,0.2,0.1,0.2,0.2v0.6c0,0.2-0.1,0.2-0.2,0.2h-4.6c-0.2,0-0.2-0.1-0.2-0.2v-0.6
			c0-0.2,0.1-0.2,0.2-0.2H134.2z M134.3,69.5c0.2,0,0.3,0.1,0.3,0.2v5.1c0,0.2-0.1,0.2-0.3,0.2h-0.8c-0.2,0-0.3-0.1-0.3-0.2v-4.2
			h-3.6c-0.2,0-0.2-0.1-0.2-0.2v-0.7c0-0.1,0.1-0.2,0.2-0.2H134.3z M133.7,73.1c0.2,0,0.2,0.1,0.2,0.2V74c0,0.2-0.1,0.2-0.2,0.2
			h-4.1c-0.2,0-0.2-0.1-0.2-0.2v-0.6c0-0.2,0.1-0.2,0.2-0.2H133.7z M138.6,59.6c0.2,0,0.3,0.1,0.3,0.2c0,0.1-0.1,0.2-0.2,0.3
			c-0.2,0.1-0.3,0.2-0.3,0.4c0,3.4,0,5.9-0.1,7.5c-0.1,1.8-0.3,3.3-0.6,4.6c-0.2,0.9-0.5,1.8-0.8,2.5h-0.1c-0.4-0.1-0.8-0.2-1.2-0.4
			c-0.1,0-0.1-0.1-0.1-0.2c0.4-0.8,0.6-1.6,0.8-2.5c0.2-0.9,0.4-2.1,0.5-3.5c0.1-1.5,0.2-4,0.2-7.5c0-0.2,0-0.7-0.1-1.3
			c0-0.1,0.1-0.2,0.3-0.2L138.6,59.6z M141.8,60.9c0,0.1-0.1,0.2-0.2,0.2c-0.1,0-0.2,0.1-0.2,0.3v11.7c0,0.2-0.1,0.2-0.3,0.2h-0.8
			c-0.2,0-0.3-0.1-0.3-0.2V60.9c0-0.1,0.1-0.2,0.3-0.2C141.3,60.7,141.8,60.8,141.8,60.9z M145.1,59.5c0,0.2-0.1,0.2-0.2,0.3
			c-0.1,0-0.2,0.1-0.2,0.3v14.8c0,0.2-0.1,0.2-0.3,0.2h-0.8c-0.2,0-0.3-0.1-0.3-0.2V59.5c0-0.1,0.1-0.2,0.3-0.2
			C144.6,59.3,145.1,59.3,145.1,59.5z"/>
		<path class="st4" d="M156.9,64.2l-0.4,0.8c-0.9-0.7-1.6-1.2-2.1-1.4c-0.6-0.3-1.1-0.6-1.8-0.8c0-0.1,0.2-0.4,0.8-0.9
			c0.1-0.1,0.1-0.1,0.2-0.1C154.7,62.4,155.8,63.2,156.9,64.2z M153.9,68.9l1.3,0.3c0.1,0,0.2,0.1,0.2,0.2c0,0.1-0.1,0.2-0.4,0.3
			c-0.2,1.3-0.4,2.2-0.5,2.8c-0.2,0.5-0.3,1.1-0.5,1.6c-0.1,0-0.3,0-0.4-0.1c-0.2-0.1-0.4-0.2-0.7-0.2c-0.1,0-0.1-0.1-0.1-0.2
			c0.1-0.1,0.1-0.3,0.2-0.5c0.2-0.4,0.3-0.9,0.4-1.3c0.1-0.5,0.2-1,0.3-1.6c0.1-0.4,0.1-0.7,0.1-1.1C153.8,69,153.9,68.9,153.9,68.9
			z M158.8,66.4l0.3,0.7l-5.2,1.2c-0.3,0.3-0.5,0.4-0.5,0.4c0,0-0.2-0.5-0.4-1.6C153,67.1,154.9,66.8,158.8,66.4z M158.3,61.7
			c0.9,0.7,1.3,1,1.3,1.1c0,0.1-0.1,0.1-0.2,0.1c-0.3,0-0.5,0-0.5,0.1c-1.3,1.6-2.5,3.1-3.7,4.4h-1.4c1.2-1.4,2.2-2.5,2.9-3.4
			C157.3,63.2,157.9,62.4,158.3,61.7z M156.7,59.3l1.4,0.7c0.1,0.1,0.1,0.2,0.1,0.2c0,0.1-0.1,0.2-0.3,0.2c-0.3,0-0.5,0.1-0.5,0.2
			c-0.8,1-1.6,2-2.3,2.8l-1-0.6c0.6-0.6,1.1-1.2,1.5-1.7C156.1,60.2,156.5,59.6,156.7,59.3z M156,67.2h1.3v7.6
			c0,0.1-0.1,0.2-0.3,0.2h-0.7c-0.2,0-0.3-0.1-0.3-0.2V67.2z M159.6,66.7c0.2,0.4,0.4,0.9,0.5,1.4c0,0-0.4,0.2-1.2,0.4
			c-0.1-0.3-0.2-0.7-0.3-1.2c-0.2-0.5-0.4-1.1-0.8-1.6c0-0.1,0.3-0.3,1-0.5C159.1,65.7,159.4,66.2,159.6,66.7z M159.1,69.1
			c0.3,0.6,0.6,1.6,1,3c0,0.1-0.4,0.2-1.1,0.3c-0.1,0-0.2,0-0.2-0.1c-0.2-1-0.4-2-0.8-3c0-0.1,0.3-0.2,1-0.3
			C159,68.9,159.1,69,159.1,69.1z M164.3,68.2l1.1,0.5c-0.7,1.1-1.2,1.9-1.7,2.5c-0.5,0.6-1,1.2-1.6,1.7c-0.7,0.6-1.3,1.1-2,1.5
			c-0.1,0-0.2,0-0.3-0.1c-0.2-0.2-0.5-0.4-0.7-0.6c0-0.1-0.1-0.1-0.1-0.2c0.6-0.3,1.2-0.7,1.6-1c0.6-0.4,1.2-1,1.8-1.7
			C162.8,70.4,163.4,69.5,164.3,68.2z M169.8,60.9c0.1,0,0.2,0.1,0.2,0.2v0.6c0,0.1-0.1,0.2-0.2,0.2h-9.6c-0.1,0-0.2-0.1-0.2-0.2
			v-0.6c0-0.1,0.1-0.2,0.2-0.2H169.8z M160.7,63.3h0.7c0.2,0,0.3,0.1,0.3,0.2v6.1c0,0.1-0.1,0.2-0.3,0.2h-0.7
			c-0.2,0-0.3-0.1-0.3-0.2v-6.1C160.5,63.3,160.6,63.3,160.7,63.3z M169.2,63.3c0.2,0,0.3,0.1,0.3,0.2v6.1c0,0.1-0.1,0.2-0.3,0.2
			h-0.7c-0.2,0-0.3-0.1-0.3-0.2v-5.3h-6.9c-0.1,0-0.2-0.1-0.2-0.2v-0.6c0-0.1,0.1-0.2,0.2-0.2H169.2z M168.6,67.7
			c0.1,0,0.2,0.1,0.2,0.2v0.6c0,0.1-0.1,0.2-0.2,0.2h-7.3c-0.1,0-0.2-0.1-0.2-0.2v-0.6c0-0.1,0.1-0.2,0.2-0.2H168.6z M163.7,66.1
			c0.2,0.3,0.3,0.6,0.4,1c0,0-0.4,0.2-1.1,0.3c0-0.2-0.2-0.5-0.3-0.8c-0.2-0.4-0.4-0.7-0.7-1.1c0-0.1,0.3-0.2,0.9-0.5
			C163.2,65.4,163.5,65.8,163.7,66.1z M165.9,59.4c0,0.1-0.1,0.2-0.2,0.2c-0.1,0-0.2,0.1-0.2,0.3v14.8c0,0.1-0.1,0.2-0.3,0.2h-0.7
			c-0.2,0-0.3-0.1-0.3-0.2V59.4c0-0.1,0.1-0.2,0.3-0.2C165.4,59.2,165.9,59.3,165.9,59.4z M164.5,68.2h1.1c0.6,1.1,1.1,1.9,1.5,2.5
			c0.4,0.6,1,1.2,1.6,1.7c0.5,0.4,1,0.7,1.6,0.9c0,0.1-0.1,0.2-0.2,0.2c-0.3,0.2-0.5,0.5-0.7,0.7c-0.1,0.1-0.1,0.1-0.2,0.1
			c-0.8-0.5-1.5-1-2-1.5c-0.6-0.6-1.1-1.2-1.5-1.9C165.4,70.2,164.9,69.3,164.5,68.2z M167,64.8l1,0.4c0.2,0.1,0.2,0.1,0.2,0.2
			c0,0.1,0,0.1-0.1,0.1c-0.1,0-0.2,0-0.2,0.1c-0.3,0.7-0.7,1.2-1,1.6c-0.1,0.1-0.1,0.1-0.2,0.1c-0.1,0-0.2,0-0.3-0.1
			c-0.2-0.1-0.4-0.2-0.6-0.3c-0.1,0-0.1-0.1-0.1-0.1c0,0,0,0,0.1-0.1c0.3-0.4,0.5-0.7,0.7-0.9c0.2-0.3,0.4-0.7,0.5-1
			C166.9,64.8,166.9,64.8,167,64.8z"/>
		<path class="st4" d="M178.5,62.5h0.8c0.2,0,0.3,0.1,0.3,0.2v7.8c0,0.2-0.1,0.2-0.3,0.2h-0.8c-0.2,0-0.3-0.1-0.3-0.2v-7.8
			C178.2,62.6,178.3,62.5,178.5,62.5z M193.4,62.5c0.2,0,0.3,0.1,0.3,0.2v7.8c0,0.2-0.1,0.2-0.3,0.2h-0.8c-0.2,0-0.3-0.1-0.3-0.2
			v-6.9h-13.1c-0.2,0-0.3-0.1-0.3-0.2v-0.7c0-0.2,0.1-0.2,0.3-0.2H193.4z M192.7,68.1c0.2,0,0.3,0.1,0.3,0.3V69
			c0,0.2-0.1,0.3-0.3,0.3h-13.5c-0.2,0-0.3-0.1-0.3-0.3v-0.7c0-0.2,0.1-0.3,0.3-0.3H192.7z M187.3,59.6c0,0.2-0.1,0.2-0.2,0.3
			c-0.1,0-0.2,0.1-0.2,0.4v14.7c0,0.2-0.1,0.2-0.3,0.2h-0.8c-0.2,0-0.3-0.1-0.3-0.2V59.6c0-0.2,0.1-0.2,0.3-0.2
			C186.7,59.3,187.3,59.4,187.3,59.6z"/>
		<path class="st4" d="M203.9,65.1l1.3,0.5c0.2,0.1,0.3,0.2,0.3,0.3c0,0.2-0.1,0.3-0.2,0.4c-0.2,0-0.3,0.1-0.4,0.4
			c-0.6,2.1-1.2,3.8-1.7,5c-0.1,0.2-0.2,0.4-0.3,0.4c-0.1,0-0.2,0-0.4-0.1c-0.3-0.1-0.6-0.2-0.8-0.4c-0.1,0-0.2-0.1-0.2-0.1
			c0,0,0-0.1,0.1-0.2c0.5-1,0.9-1.9,1.2-2.7c0.4-1,0.7-2,0.9-3C203.8,65.2,203.8,65.1,203.9,65.1z M208.5,63.4
			c0.2,0,0.3,0.1,0.3,0.1c0,0.1,0,0.2-0.1,0.2c-0.1,0-0.2,0.1-0.2,0.2v8.5c0,0.5,0.4,0.8,1.2,0.8h3.6c1.1,0,1.7-0.2,1.9-0.5
			c0.3-0.3,0.6-1.3,1-3c0.2,0.3,0.5,0.5,0.9,0.7c0.2,0.1,0.3,0.2,0.3,0.3c-0.5,1.9-0.9,3-1.2,3.2c-0.3,0.4-0.8,0.6-1.7,0.6h-4.8
			c-1.6,0-2.4-0.5-2.4-1.4v-9.7c0-0.1,0-0.2,0.1-0.2L208.5,63.4z M208.4,59.5c1.4,0.6,2.9,1.3,4.4,2.2c0.1,0.1,0.2,0.2,0.2,0.3
			c0,0.1,0,0.1-0.1,0.2l-0.4,0.5c-0.1,0.1-0.2,0.1-0.3,0.1c-0.1,0-0.2-0.1-0.4-0.2c-1.5-0.8-2.9-1.5-4.2-2c-0.3-0.1-0.4-0.2-0.4-0.3
			c0-0.1,0-0.1,0.1-0.2l0.5-0.7c0.1,0,0.2-0.1,0.2-0.1C208.1,59.4,208.3,59.4,208.4,59.5z M217.2,66.6c0.8,0.7,1.5,1.3,2.1,1.9
			c0,0,0,0.1-0.1,0.2c-0.5,0.6-0.7,0.9-0.7,0.9c-0.9-0.9-1.8-1.7-2.8-2.4c-0.8-0.6-1.5-1-2-1.2c0-0.1,0.3-0.4,0.7-0.9
			c0.1-0.1,0.1-0.1,0.2-0.1C215.6,65.5,216.5,66.1,217.2,66.6z"/>
	</g>
	<g>
		<g>
			<path class="st3" d="M158.4,25.8c-0.2,6.3-0.6,10.7-0.9,13.4l-3.4-0.6c0.6-3.9,0.9-8.3,0.9-13.1L158.4,25.8z M162.8,18.6v33.9
				h-3.6V18.6H162.8z M167.2,33.6l-3.2,0.3l-0.6-8.1l3.2-0.5L167.2,33.6z M182.3,30.1c0.1-0.4,0-0.7-0.5-0.7H172l-2.3,17.3l-3.8-0.5
				l3.2-23.1h-4v-3.8h22.6v3.8h-14.8l-0.4,2.5h12.1c0.4,0,0.8,0.1,1.2,0.4c0.4,0.4,0.6,0.8,0.6,1.2l-2,21.1h3.9v3.8h-23.9v-3.8h16.2
				L182.3,30.1z M173.6,38.2c2.5,1.7,4.8,3.5,6.8,5.4l-2.5,2.6c-2.5-2.3-4.7-4-6.6-5.2L173.6,38.2z M174.6,30.8
				c3.2,2.3,5.4,4,6.6,5.2l-2.5,2.6c-2.4-2.2-4.5-3.9-6.4-5L174.6,30.8z"/>
			<path class="st3" d="M197.8,39c0-0.3-0.2-0.4-0.5-0.4h-3.6v-3.6h6.9c0.6,0,0.9,0.3,0.9,0.8v7.6c0,0.1,0,0.2,0,0.3
				c0.1,0.7,0.5,1.5,1.2,2.3c0.6,0.9,1.5,1.6,2.8,2.1c1.2,0.5,2.9,0.7,5.2,0.6c6.3-0.2,11.8-0.5,16.5-0.8l-1,4.3
				c-6.3,0-12.2,0.1-17.8,0.2c-4.1-0.3-6.9-1.7-8.3-4.2c-0.3,0.8-1.1,1.6-2.3,2.6c-1.2,0.9-2.3,1.6-3.4,1.9l-1.7-3.5
				c2-0.8,3.4-1.7,4.1-2.5c0.6-0.9,1-1.9,1.1-3.1V39z M194.8,25.8c1.8,0.9,3.8,2.3,6.1,4.1l-2.2,3.1c-2.4-1.9-4.3-3.2-5.9-4
				L194.8,25.8z M209.9,17.3l3,1.3c-0.2,0.4-0.4,0.8-0.7,1.1h7.6l2.1,1.8c-0.8,1.6-1.9,3-3.1,4.2h6.1c0.6,0,1,0.3,1,0.9v8.1
				c0,0.6-0.3,1-1,1h-9.5c-0.1,0.3-0.3,0.6-0.4,1h1.2v5.2c0,0.5,0.1,0.9,0.3,1.1c0.2,0.2,0.6,0.4,1.1,0.4h4.9c0.3,0,0.6-0.1,1-0.4
				c0.1-0.1,0.2-0.2,0.2-0.4c0-0.6,0.1-1.6,0.2-3l3.2,0.7c-0.3,3-0.6,4.6-0.9,5c-0.8,0.9-1.5,1.3-2.3,1.3h-8.8
				c-0.7,0-1.3-0.3-1.8-0.8c-0.4-0.5-0.7-1.1-0.7-1.6v-3.3c-1.9,2.3-4.7,4.3-8.3,5.8l-2.1-3.1c4.7-1.6,7.9-4.3,9.5-7.9h-8.1
				c-0.6,0-0.9-0.3-0.9-1v-7.3c-0.5,0.2-1,0.4-1.5,0.7l-1.3-2.8l-0.2,0.3c-2.3-1.8-4.2-3.1-5.8-3.8l2-3.2c1.8,0.9,3.8,2.2,6,3.9
				l-1.3,1.8C204.9,22.6,207.9,20.3,209.9,17.3z M213.9,25.8c1.4-1,2.6-1.9,3.6-2.8h-7.7c-1.5,1.3-2.8,2.2-3.8,2.8H213.9z M212.7,29
				h-6c-0.1,0-0.2,0.1-0.2,0.2v3.2c0,0.1,0.1,0.2,0.2,0.2h6c0-0.3,0-0.6,0-0.9V29z M216.1,32.5h6c0.1,0,0.2-0.1,0.2-0.2v-3.2
				c0-0.1-0.1-0.2-0.2-0.2h-6v2.6C216.2,31.9,216.2,32.2,216.1,32.5z M219.7,36.4c0.3,0.3,0.9,0.9,1.6,1.7c0.7,0.8,1.4,1.5,1.9,2.1
				l-2.8,2.1c-1.2-1.5-2.3-2.7-3.4-3.6L219.7,36.4z"/>
		</g>
	</g>
</g>
</svg>
